<svg width="160" height="32" viewBox="0 0 160 32" fill="none" xmlns="http://www.w3.org/2000/svg">
<path d="M52.6947 22.0557C51.0519 22.0557 49.7102 21.5405 48.6781 20.5187C47.6459 19.4969 47.1299 18.1345 47.1299 16.4228V16.1259C47.1299 14.9819 47.3449 13.9601 47.7836 13.0606C48.2222 12.161 48.8329 11.4624 49.6328 10.9733C50.4326 10.4843 51.3443 10.2397 52.3593 10.2397C53.8902 10.2397 55.103 10.7288 55.9802 11.7157C56.8575 12.7025 57.3048 14.0911 57.3048 15.8901V17.1302H50.166C50.2606 17.8725 50.5531 18.4664 51.0433 18.9205C51.5336 19.3659 52.1442 19.593 52.8925 19.593C54.045 19.593 54.9481 19.1651 55.5932 18.3179L57.064 19.9947C56.6167 20.641 56.006 21.1475 55.2406 21.5055C54.4751 21.8723 53.6236 22.0557 52.6947 22.0557ZM52.3507 12.7025C51.7572 12.7025 51.2755 12.9034 50.9057 13.3138C50.5359 13.7243 50.3036 14.3094 50.1918 15.0692H54.3547V14.8247C54.3375 14.1522 54.1654 13.6282 53.8128 13.2527C53.4774 12.8859 52.9871 12.7025 52.3507 12.7025Z" fill="white"/>
<path d="M62.9557 13.8557L64.8393 10.4585H68.0389L64.8479 16.0303L68.1765 21.8378H64.9683L62.9729 18.2572L60.9861 21.8378H57.7607L61.0893 16.0303L57.907 10.4585H61.1151L62.9557 13.8557Z" fill="white"/>
<path d="M79.2549 16.2569C79.2549 18.0123 78.8593 19.4183 78.0766 20.4663C77.2939 21.523 76.236 22.047 74.9028 22.047C73.7675 22.047 72.8558 21.6453 72.1591 20.8506V26.2127H69.166V10.4493H71.9441L72.0473 11.5672C72.7698 10.6851 73.7159 10.2397 74.8856 10.2397C76.2704 10.2397 77.3455 10.755 78.111 11.7943C78.8765 12.8335 79.2635 14.2657 79.2635 16.091V16.2569H79.2549ZM76.2618 16.0386C76.2618 14.9819 76.0812 14.1609 75.7113 13.5846C75.3415 13.0082 74.8082 12.72 74.103 12.72C73.1655 12.72 72.5204 13.0868 72.1677 13.8116V18.4751C72.5376 19.2262 73.1827 19.6017 74.1288 19.6017C75.5479 19.6017 76.2618 18.414 76.2618 16.0386Z" fill="white"/>
<path d="M85.9457 22.0557C84.3029 22.0557 82.9611 21.5405 81.929 20.5187C80.8969 19.4969 80.3809 18.1345 80.3809 16.4228V16.1259C80.3809 14.9819 80.5959 13.9601 81.0345 13.0606C81.4732 12.161 82.0838 11.4624 82.8837 10.9733C83.6836 10.4843 84.5953 10.2397 85.6102 10.2397C87.1412 10.2397 88.3539 10.7288 89.2312 11.7157C90.1085 12.7025 90.5558 14.0911 90.5558 15.8901V17.1302H83.417C83.5116 17.8725 83.804 18.4664 84.2943 18.9205C84.7845 19.3659 85.3952 19.593 86.1435 19.593C87.296 19.593 88.1991 19.1651 88.8442 18.3179L90.3149 19.9947C89.8677 20.641 89.257 21.1475 88.4915 21.5055C87.7347 21.8723 86.8832 22.0557 85.9457 22.0557ZM85.6102 12.7025C85.0168 12.7025 84.5351 12.9034 84.1653 13.3138C83.7954 13.7243 83.5632 14.3094 83.4514 15.0692H87.6142V14.8247C87.597 14.1522 87.425 13.6282 87.0724 13.2527C86.7369 12.8859 86.2467 12.7025 85.6102 12.7025Z" fill="white"/>
<path d="M98.2363 13.3134C97.8321 13.261 97.4708 13.2261 97.1612 13.2261C96.0259 13.2261 95.2862 13.6191 94.9336 14.3964V21.8458H91.9404V10.4664H94.7701L94.8561 11.8201C95.4582 10.7721 96.2925 10.2568 97.3504 10.2568C97.6859 10.2568 97.9955 10.3005 98.2793 10.3966L98.2363 13.3134Z" fill="white"/>
<path d="M103.466 7.66357V10.4582H105.384V12.6852H103.466V18.3705C103.466 18.7897 103.544 19.0953 103.707 19.2787C103.862 19.4621 104.171 19.5494 104.619 19.5494C104.954 19.5494 105.247 19.5232 105.496 19.4796V21.7851C104.911 21.9685 104.3 22.0559 103.681 22.0559C101.583 22.0559 100.507 20.9817 100.473 18.8246V12.6939H98.8389V10.4669H100.473V7.67232H103.466V7.66357Z" fill="white"/>
<path d="M112.807 18.6935C112.807 18.3179 112.626 18.0297 112.265 17.8114C111.904 17.6018 111.319 17.4097 110.519 17.235C107.853 16.6674 106.52 15.5146 106.52 13.7854C106.52 12.7724 106.932 11.934 107.758 11.2528C108.584 10.5716 109.659 10.2397 110.992 10.2397C112.411 10.2397 113.555 10.5803 114.407 11.2615C115.258 11.9427 115.688 12.8248 115.688 13.9164H112.687C112.687 13.4798 112.549 13.1217 112.274 12.8422C111.998 12.554 111.568 12.4143 110.975 12.4143C110.467 12.4143 110.08 12.5278 109.805 12.7636C109.53 12.9994 109.392 13.2876 109.392 13.6457C109.392 13.9863 109.547 14.257 109.865 14.4579C110.184 14.6675 110.708 14.8421 111.457 14.9906C112.205 15.1391 112.833 15.3137 113.34 15.4971C114.923 16.0822 115.714 17.104 115.714 18.5625C115.714 19.6017 115.275 20.4401 114.398 21.0864C113.521 21.7239 112.385 22.047 111.001 22.047C110.063 22.047 109.229 21.8811 108.498 21.5405C107.767 21.1999 107.199 20.737 106.786 20.1432C106.373 19.5493 106.167 18.9118 106.167 18.2219H109.005C109.031 18.7633 109.229 19.1738 109.599 19.462C109.969 19.7502 110.459 19.8899 111.07 19.8899C111.646 19.8899 112.076 19.7764 112.368 19.5581C112.661 19.3397 112.807 19.0515 112.807 18.6935Z" fill="white"/>
<path d="M126.955 19.6018C127.506 19.6018 127.953 19.4446 128.306 19.1389C128.65 18.8332 128.83 18.4228 128.847 17.9075H131.651C131.643 18.676 131.436 19.3834 131.032 20.0297C130.628 20.6672 130.069 21.1737 129.355 21.5231C128.65 21.8811 127.867 22.0558 127.007 22.0558C125.407 22.0558 124.143 21.5405 123.214 20.5013C122.285 19.4708 121.829 18.0385 121.829 16.2133V16.0124C121.829 14.2571 122.285 12.8597 123.205 11.8118C124.126 10.7638 125.381 10.2485 126.99 10.2485C128.392 10.2485 129.518 10.6503 130.361 11.4624C131.204 12.2746 131.634 13.3488 131.651 14.6937H128.847C128.83 14.0999 128.658 13.6195 128.306 13.2527C127.962 12.8859 127.506 12.6938 126.938 12.6938C126.241 12.6938 125.717 12.9558 125.355 13.4711C125.003 13.9863 124.822 14.8247 124.822 15.9862V16.3006C124.822 17.4709 124.994 18.318 125.347 18.8332C125.7 19.3485 126.233 19.6018 126.955 19.6018Z" fill="white"/>
<path d="M136.201 21.8458H133.199V5.68945H136.201V21.8458Z" fill="white"/>
<path d="M145.06 20.6851C144.321 21.5934 143.297 22.0562 141.99 22.0562C140.786 22.0562 139.874 21.7069 139.238 21.0082C138.61 20.3096 138.283 19.2791 138.266 17.9254V10.4673H141.259V17.8293C141.259 19.0171 141.792 19.6109 142.859 19.6109C143.873 19.6109 144.57 19.2529 144.949 18.5367V10.4673H147.95V21.8466H145.129L145.06 20.6851Z" fill="white"/>
<path d="M160 16.257C160 18.0823 159.613 19.5058 158.847 20.5188C158.082 21.5406 157.007 22.0471 155.639 22.0471C154.426 22.0471 153.454 21.5755 152.723 20.6236L152.586 21.8375H149.894V5.68115H152.887V11.48C153.575 10.6591 154.486 10.2486 155.613 10.2486C156.981 10.2486 158.056 10.7551 158.83 11.7769C159.604 12.7987 160 14.2309 160 16.0824V16.257ZM157.007 16.0387C157.007 14.8859 156.826 14.0475 156.465 13.5148C156.103 12.9821 155.57 12.7201 154.856 12.7201C153.902 12.7201 153.248 13.1131 152.887 13.9078V18.3967C153.257 19.2001 153.919 19.5931 154.873 19.5931C155.837 19.5931 156.473 19.1128 156.783 18.1434C156.938 17.6893 157.007 16.9819 157.007 16.0387Z" fill="white"/>
<path opacity="0.5" d="M31.5155 0.170637V24.3608C31.5155 24.4527 31.4379 24.5315 31.3474 24.5315H20.3856V11.4716C20.3856 11.3798 20.308 11.301 20.2175 11.301H7.35547V0.170637C7.35547 0.0787591 7.43303 0 7.52352 0H31.3474C31.4379 0 31.5155 0.0656337 31.5155 0.170637Z" fill="#D73628"/>
<path opacity="0.5" d="M20.3854 24.5317V31.8295C20.3854 31.9213 20.3078 32.0001 20.2174 32.0001H0.168047C0.0775602 32.0001 0 31.9213 0 31.8295V11.4719C0 11.38 0.0775602 11.3013 0.168047 11.3013H7.35529V24.3611C7.35529 24.453 7.43285 24.5317 7.52334 24.5317H20.3854V24.5317Z" fill="#D73628"/>
<path d="M20.3856 11.4719V24.5317H7.52352C7.43303 24.5317 7.35547 24.453 7.35547 24.3611V11.3013H20.2175C20.308 11.3013 20.3856 11.38 20.3856 11.4719Z" fill="#D73628"/>
</svg>
